<?xml version="1.0" standalone="no"?>
<!DOCTYPE svg PUBLIC "-//W3C//DTD SVG 20010904//EN"
 "http://www.w3.org/TR/2001/REC-SVG-20010904/DTD/svg10.dtd">
<svg version="1.0" xmlns="http://www.w3.org/2000/svg"
 width="512.000000pt" height="512.000000pt" viewBox="0 0 512.000000 512.000000"
 preserveAspectRatio="xMidYMid meet">

<g transform="translate(0.000000,512.000000) scale(0.100000,-0.100000)"
fill="#000000" stroke="none">
<path d="M1023 5113 c-24 -2 -43 -7 -43 -10 0 -3 77 -110 172 -237 94 -127
324 -437 510 -688 l339 -458 755 0 c415 0 754 3 754 6 0 3 -179 249 -398 547
-219 298 -447 610 -507 694 l-110 152 -715 -1 c-393 -1 -734 -3 -757 -5z"/>
<path d="M3087 5091 c10 -15 241 -330 513 -700 l495 -671 510 2 510 3 -1 180
c-1 266 -31 393 -137 597 -170 328 -494 554 -872 608 -39 5 -287 10 -553 10
l-484 0 19 -29z"/>
<path d="M461 4885 c-139 -103 -260 -248 -340 -410 -93 -188 -121 -324 -121
-581 l0 -174 706 0 c591 0 705 2 701 14 -3 7 -85 121 -183 252 -98 131 -292
394 -432 584 -140 190 -258 349 -262 353 -4 4 -35 -13 -69 -38z"/>
<path d="M2 2118 l3 -1143 26 -96 c111 -399 384 -691 769 -820 181 -60 143
-59 1760 -59 924 0 1501 4 1545 10 500 71 878 428 993 934 14 62 16 211 19
1194 l4 1122 -2561 0 -2561 0 3 -1142z m1953 738 c83 -38 1407 -786 1445 -816
105 -82 116 -241 23 -335 -46 -46 -1432 -830 -1507 -853 -98 -29 -212 22 -261
118 l-25 49 0 841 c0 919 -2 879 58 944 38 40 118 76 172 76 26 0 66 -10 95
-24z"/>
</g>
</svg>
